<svg xmlns="http://www.w3.org/2000/svg" width="430" height="430" style="width:100%;height:100%;transform:translate3d(0,0,0);content-visibility:visible" viewBox="0 0 430 430"><defs><clipPath id="c"><path d="M0 0h430v430H0z"/></clipPath><clipPath id="e"><path d="M0 0h430v430H0z"/></clipPath><clipPath id="d"><path d="M0 0h430v430H0z"/></clipPath><filter id="a" width="100%" height="100%" x="0%" y="0%" filterUnits="objectBoundingBox"><feComponentTransfer in="SourceGraphic"><feFuncA tableValues="1.0 0.0" type="table"/></feComponentTransfer></filter><path id="b" style="display:none"/><mask id="f" mask-type="alpha"><g filter="url(#a)"><path fill="#fff" d="M0 0h430v430H0z" opacity="0"/><use xmlns:ns1="http://www.w3.org/1999/xlink" ns1:href="#b"/></g></mask></defs><g clip-path="url(#c)"><g clip-path="url(#d)" style="display:block"><g fill="#EBE6EF" style="display:block"><path d="M99.9 65.1c-46.613 0-84.4 37.787-84.4 84.4 0 46.613 37.787 84.4 84.4 84.4h230.7c46.613 0 84.4-37.787 84.4-84.4 0-46.613-37.787-84.4-84.4-84.4H99.9z" class="tertiary"/><path d="M-199.5 9.5c0-46.613 37.787-84.4 84.4-84.4h36.171c-46.613 0-84.4 37.787-84.4 84.4 0 46.613 37.787 84.4 84.4 84.4H-115.1c-46.613 0-84.4-37.787-84.4-84.4z" class="tertiary" opacity=".5" style="mix-blend-mode:multiply" transform="translate(215 140)"/></g><path fill="none" stroke="#121331" stroke-linecap="round" stroke-linejoin="round" stroke-width="7" d="M-115-75c-46.944 0-85 38.056-85 85s38.056 85 85 85h230c46.944 0 85-38.056 85-85s-38.056-85-85-85h-230z" class="primary" style="display:block" transform="translate(215 140)"/><path fill="none" stroke="#121331" stroke-linecap="round" stroke-linejoin="round" stroke-width="7" d="m12.1 17.497-2.277-6.593m-25.778 0-2.276 6.593m91.287 0V-17.5L98.72 17.497V-17.5m-105.505 0H.646l9.177 28.404h-25.778l9.17-28.404zm-68.604 34.997H-98.72V-17.5M-57.894.003h15.588m7.797 17.494h-23.385V-17.5h23.385m63.866 34.997V-17.5M46.384 4.006 55.18 17.5M29.357 4.006H42.08c5.939 0 10.753-4.814 10.753-10.753S48.019-17.5 42.08-17.5H29.357" class="primary" style="display:block" transform="translate(214.72 118.5)"/><path fill="none" stroke="#121331" stroke-linecap="round" stroke-linejoin="round" stroke-width="7" d="M-81.477 17.5v-35l15.556 15.433L-50.366-17.5v35M58.14.005h15.556M81.477 17.5H58.14v-35h23.337M13.853 17.497V-17.5M30.881 4.006 39.677 17.5M13.853 4.006h12.723c5.939 0 10.753-4.814 10.753-10.753S32.515-17.5 26.576-17.5H13.853m-32.809-.5h.302A13.43 13.43 0 0 1-5.276-4.878v9.756A13.43 13.43 0 0 1-18.654 18h-.302A13.422 13.422 0 0 1-32.334 4.878v-9.756A13.426 13.426 0 0 1-18.956-18z" class="primary" style="display:block" transform="translate(215.477 180)"/><g style="display:block"><path fill="#F9C9C0" d="M197.5 309.25s-1.25-4.75-3.5-14.25c-8.25-30.5-23.75-32.5-33.25-31.5S154 274.75 154 274.75s3.425 14.513 12.25 40.75c9.25 27.5 34.75 45 34.75 45V375h82.5v-15c3-5 12.827-38.334 12.821-52.438-.006-14.104-.053-38.812-.053-38.812 0-7.249-5.876-13.125-13.125-13.125s-13.125 5.876-13.125 13.125v6.562-16.406c0-7.249-5.876-13.125-13.125-13.125s-13.125 5.876-13.125 13.125v16.406-22.969c0-7.249-5.876-13.125-13.125-13.125s-13.125 5.876-13.125 13.125v22.969-72.187c0-7.249-5.876-13.125-13.125-13.125s-13.125 5.876-13.125 13.125l.001 2.456.052 84.731" class="secondary"/><g opacity=".5" style="mix-blend-mode:multiply"><path fill="#F9C9C0" d="M191.305 285.237h10l.001-82.187c0-5.478 3.356-10.173 8.125-12.139a13.096 13.096 0 0 0-5-.986c-7.249 0-13.125 5.876-13.125 13.125l-.001 82.187zm26.287-9.942v-22.969c0-7.249 5.877-13.125 13.126-13.125 1.77 0 3.459.351 5 .986-4.769 1.966-8.126 6.661-8.126 12.139v22.969h-10zm26.452.072V258.96c0-7.249 5.875-13.125 13.124-13.125 1.77 0 3.459.351 5 .986-4.769 1.966-8.124 6.661-8.124 12.139v16.407h-10zm-84.498-11.687a24.722 24.722 0 0 1 4.811-.794 8.173 8.173 0 0 0-.611 5.841l8.334 31.103a99.995 99.995 0 0 0 32.337 50.742l6.425 5.387v19.373h-10v-14.373l-6.425-5.387a99.995 99.995 0 0 1-32.337-50.742l-8.334-31.103a8.203 8.203 0 0 1 5.8-10.047zm110.545 11.523v-6.563c0-7.249 5.875-13.125 13.124-13.125 1.77 0 3.459.351 5 .986-4.769 1.966-8.124 6.661-8.124 12.139v6.563h-10z" class="secondary" opacity="1"/></g></g><path fill="none" stroke="#121331" stroke-linecap="round" stroke-linejoin="round" stroke-width="7" d="M-46.268 76.594s-1.25-4.75-3.5-14.25c-8.25-30.5-23.75-32.5-33.25-31.5s-6.75 11.25-6.75 11.25 3.425 14.513 12.25 40.75c9.25 27.5 34.75 45 34.75 45v14.5h82.5v-15c3-5 12.827-38.334 12.821-52.438-.006-14.104-.053-38.812-.053-38.812 0-7.249-5.876-13.125-13.125-13.125S26.25 28.845 26.25 36.094v6.562V26.25c0-7.249-5.876-13.125-13.125-13.125S0 19.001 0 26.25v16.406-22.969C0 12.438-5.876 6.562-13.125 6.562S-26.25 12.438-26.25 19.687v22.969-72.187c0-7.249-5.876-13.125-13.125-13.125S-52.5-36.78-52.5-29.531l.001 2.456-.126 79.231" class="primary" style="display:block" transform="translate(243.768 232.656)"/><path fill="#F28BA8" d="M-42-12.5a3 3 0 0 0-3 3v19a3 3 0 0 0 3 3h84a3 3 0 0 0 3-3v-19a3 3 0 0 0-3-3h-84z" class="quaternary" style="display:block" transform="translate(242 387.5)"/><g opacity=".5" style="mix-blend-mode:multiply;display:block"><path fill="#F28BA8" d="M200 375a3 3 0 0 0-3 3v19a3 3 0 0 0 3 3h17v-25h-17z" class="quaternary" opacity="1"/></g><path fill="none" stroke="#121331" stroke-linejoin="round" stroke-width="7" d="M45-12.5h-90v25h90v-25z" class="primary" style="display:block" transform="translate(242 387.5)"/></g><g clip-path="url(#e)" style="display:none"><g style="display:none"><path class="tertiary"/><path class="tertiary" style="mix-blend-mode:multiply"/></g><path fill="none" class="primary" style="display:none"/><path fill="none" class="primary" style="display:none"/><path fill="none" class="primary" style="display:none"/><g mask="url(#f)" style="display:none"><path class="secondary"/><g style="mix-blend-mode:multiply"><path class="secondary"/><path class="secondary"/><path class="secondary"/><path class="secondary"/><path class="secondary"/></g><path fill="none" class="primary"/></g><g style="display:none"><path class="quaternary"/><path class="quaternary" style="mix-blend-mode:multiply"/><path fill="none" class="primary"/></g></g></g></svg>